<svg xmlns="http://www.w3.org/2000/svg" xmlns:xlink="http://www.w3.org/1999/xlink" x="0px" y="0px" width="220.6px" height="180.1px" viewBox="0 0 220.6 180.1" style="enable-background:new 0 0 220.6 180.1;" xml:space="preserve">
<style type="text/css">
	.st0{display:none;}
	.st1{display:inline;}
	.st2{fill:#FFFFFF;}
	.st3{fill:none;stroke:#535859;stroke-width:0.75;stroke-linejoin:round;stroke-miterlimit:10;}
	.st4{fill:#E2E2E2;}
	.st5{fill:none;stroke:#535859;stroke-width:0.75;stroke-miterlimit:10;}
	.st6{fill:#A5A5A5;}
	.st7{fill:#3498DB;}
	.st8{fill:#BDCCD4;}
	.st9{fill:none;stroke:#4D5152;stroke-width:0.75;stroke-miterlimit:10;}
	.st10{fill:none;stroke:#4D5152;stroke-width:0.75;stroke-linejoin:round;stroke-miterlimit:10;}
</style>
<g id="icons" class="st0">
	<g class="st1">
		<g>
			<g>
				<g>
					<rect x="89.7" y="59.4" class="st2" width="34.3" height="46.3"></rect>
					<polyline class="st3" points="117.2,105.7 89.7,105.7 89.7,59.4 124,59.4 124,80      "></polyline>
					<g>
						<path class="st4" d="M132.6,86c-0.9,0-1.7,0.8-1.7,1.7V86c0-0.9-0.8-1.7-1.7-1.7s-1.7,0.8-1.7,1.7l0,0c0-0.9-0.8-1.7-1.7-1.7        S124,85.1,124,86v-1.7c0-0.9-0.8-1.7-1.7-1.7c-0.9,0-1.7,0.8-1.7,1.7v4.3H119c-0.9,0-1.8,0.8-1.8,1.7v5.1l1.7,3.4l2.6,3.4v3.4        h10.3V104l2.6-8.6v-7.7C134.3,86.8,133.6,86,132.6,86z"></path>
					</g>
					<g>
						<g>
							<path class="st5" d="M131.7,105.7V104l2.6-8.6v-7.7c0-0.9-0.8-1.7-1.7-1.7s-1.7,0.8-1.7,1.7V86c0-0.9-0.8-1.7-1.7-1.7         s-1.7,0.8-1.7,1.7l0,0c0-0.9-0.8-1.7-1.7-1.7S124,85.1,124,86v-1.7c0-0.9-0.8-1.7-1.7-1.7c-0.9,0-1.7,0.8-1.7,1.7v9.4"></path>
							<line class="st5" x1="124" y1="84.3" x2="124" y2="90.3"></line>
							<line class="st5" x1="127.5" y1="86" x2="127.5" y2="90.3"></line>
							<line class="st5" x1="130.9" y1="87.7" x2="130.9" y2="90.3"></line>
							<path class="st5" d="M120.6,88.6H119c-0.9,0-1.8,0.8-1.8,1.7v5.1l1.7,3.4l2.6,3.4v3.4"></path>
						</g>
					</g>
					<rect x="119.7" y="105.7" class="st6" width="13.7" height="7.7"></rect>
					<polyline class="st3" points="119.7,113.4 119.7,105.7 133.5,105.7 133.5,113.4      "></polyline>
					<line class="st5" x1="130" y1="109.1" x2="128.3" y2="109.1"></line>
					<polygon class="st2" points="120.6,92.9 109.5,81.7 112,79.1 120.6,87.7      "></polygon>
					<polyline class="st5" points="120.6,92.9 109.5,81.7 112,79.1 120.6,87.7      "></polyline>
					<line class="st5" x1="120.6" y1="87.7" x2="120.6" y2="93.7"></line>
					<circle class="st2" cx="106.9" cy="76.6" r="12"></circle>
					<circle class="st5" cx="106.9" cy="76.6" r="12"></circle>
					<g>
						<path class="st7" d="M109.5,76.6l5.1,2.6c0,0,0,0.3,0,1.7c0,1.4-0.9,2.6-1.7,2.6h-12c-0.9,0-1.7-1.2-1.7-2.6s0-1.7,0-1.7        l5.1-2.6l2.6,1.7L109.5,76.6z"></path>
						<path class="st6" d="M110.3,71.9c0,2.1-0.8,4.7-3.4,4.7s-3.4-2.6-3.4-4.7s0.9-3.9,3.4-3.9C109.5,68,110.3,69.7,110.3,71.9z"></path>
					</g>
					<line class="st3" x1="94" y1="93.7" x2="100.9" y2="93.7"></line>
					<line class="st3" x1="94" y1="97.1" x2="106" y2="97.1"></line>
					<line class="st3" x1="94" y1="100.6" x2="114.6" y2="100.6"></line>
					<line class="st3" x1="102.6" y1="93.7" x2="114.6" y2="93.7"></line>
					<line class="st3" x1="107.7" y1="97.1" x2="114.6" y2="97.1"></line>
				</g>
				<polyline class="st3" points="117.2,109.1 86.3,109.1 86.3,60.3     "></polyline>
			</g>
		</g>
	</g>
</g>
<g id="Layer_2">
	<g>
		<g>
			<g>
				<polygon class="st7" points="82.3,60.1 82.3,93.5 86,93.5 86,63.8 132.3,63.8 132.3,60.1     "></polygon>
				<polygon class="st8" points="86,63.8 86,96.2 89.7,96.2 89.7,67.5 136.1,67.5 136.1,63.8     "></polygon>
				<rect x="89.7" y="67.5" class="st2" width="50" height="33.4"></rect>
				<rect x="89.7" y="67.5" class="st9" width="50" height="33.4"></rect>
				<polyline class="st9" points="89.7,97.2 86,97.2 86,63.8 136.1,63.8 136.1,67.5     "></polyline>
				<polyline class="st9" points="86,93.5 82.3,93.5 82.3,60.1 132.3,60.1 132.3,63.8     "></polyline>
			</g>
			<g>
				<polygon class="st7" points="96.2,96.6 96.2,98.4 98.1,98.4 98.1,101.2 105.5,101.2 105.5,98.4 107.3,98.4 107.3,96.6     "></polygon>
				<polygon class="st7" points="122.1,96.6 122.1,98.4 124,98.4 124,101.2 131.4,101.2 131.4,98.4 133.3,98.4 133.3,96.6     "></polygon>
			</g>
			<g>
				<g>
					<rect x="114.7" y="73.1" class="st7" width="18.5" height="7.4"></rect>
					<line class="st10" x1="118.4" y1="76.8" x2="129.6" y2="76.8"></line>
				</g>
				<line class="st10" x1="114.7" y1="85.1" x2="124.9" y2="85.1"></line>
				<line class="st10" x1="126.8" y1="85.1" x2="133.3" y2="85.1"></line>
				<line class="st10" x1="114.7" y1="88.8" x2="133.3" y2="88.8"></line>
				<line class="st10" x1="114.7" y1="92.5" x2="122.1" y2="92.5"></line>
			</g>
			<g>
				<g>
					<path class="st10" d="M107.3,81.4c1.5,0,2.8,1.2,2.8,2.8v8.3h-13v-8.3c0-1.5,1.2-2.8,2.8-2.8"></path>
					<circle class="st10" cx="103.6" cy="77.7" r="3.7"></circle>
				</g>
				<g>
					<line class="st10" x1="103.6" y1="84.2" x2="103.6" y2="86"></line>
					<line class="st10" x1="103.6" y1="87.9" x2="103.6" y2="89.8"></line>
				</g>
			</g>
		</g>
	</g>
</g>
</svg>