<svg xmlns="http://www.w3.org/2000/svg" xmlns:xlink="http://www.w3.org/1999/xlink" id="icons" x="0px" y="0px" width="220.6px" height="180.1px" viewBox="0 0 220.6 180.1" style="enable-background:new 0 0 220.6 180.1;" xml:space="preserve">
<style type="text/css">
	.st0{fill:#FFFFFF;}
	.st1{fill:none;stroke:#535859;stroke-width:0.75;stroke-linejoin:round;stroke-miterlimit:10;}
	.st2{fill:#E2E2E2;}
	.st3{fill:none;stroke:#535859;stroke-width:0.75;stroke-miterlimit:10;}
	.st4{fill:#A5A5A5;}
	.st5{fill:#3498DB;}
</style>
<g>
	<g>
		<g>
			<g>
				<rect x="89.7" y="59.4" class="st0" width="34.3" height="46.3"></rect>
				<polyline class="st1" points="117.2,105.7 89.7,105.7 89.7,59.4 124,59.4 124,80     "></polyline>
				<g>
					<path class="st2" d="M132.6,86c-0.9,0-1.7,0.8-1.7,1.7V86c0-0.9-0.8-1.7-1.7-1.7c-0.9,0-1.7,0.8-1.7,1.7l0,0       c0-0.9-0.8-1.7-1.7-1.7S124,85.1,124,86v-1.7c0-0.9-0.8-1.7-1.7-1.7c-0.9,0-1.7,0.8-1.7,1.7v4.3H119c-0.9,0-1.8,0.8-1.8,1.7       v5.1l1.7,3.4l2.6,3.4v3.4h10.3V104l2.6-8.6v-7.7C134.3,86.8,133.6,86,132.6,86z"></path>
				</g>
				<g>
					<g>
						<path class="st3" d="M131.7,105.7V104l2.6-8.6v-7.7c0-0.9-0.8-1.7-1.7-1.7s-1.7,0.8-1.7,1.7V86c0-0.9-0.8-1.7-1.7-1.7        c-0.9,0-1.7,0.8-1.7,1.7l0,0c0-0.9-0.8-1.7-1.7-1.7S124,85.1,124,86v-1.7c0-0.9-0.8-1.7-1.7-1.7c-0.9,0-1.7,0.8-1.7,1.7v9.4"></path>
						<line class="st3" x1="124" y1="84.3" x2="124" y2="90.3"></line>
						<line class="st3" x1="127.5" y1="86" x2="127.5" y2="90.3"></line>
						<line class="st3" x1="130.9" y1="87.7" x2="130.9" y2="90.3"></line>
						<path class="st3" d="M120.6,88.6H119c-0.9,0-1.8,0.8-1.8,1.7v5.1l1.7,3.4l2.6,3.4v3.4"></path>
					</g>
				</g>
				<rect x="119.7" y="105.7" class="st4" width="13.7" height="7.7"></rect>
				<polyline class="st1" points="119.7,113.4 119.7,105.7 133.5,105.7 133.5,113.4     "></polyline>
				<line class="st3" x1="130" y1="109.1" x2="128.3" y2="109.1"></line>
				<polygon class="st0" points="120.6,92.9 109.5,81.7 112,79.1 120.6,87.7     "></polygon>
				<polyline class="st3" points="120.6,92.9 109.5,81.7 112,79.1 120.6,87.7     "></polyline>
				<line class="st3" x1="120.6" y1="87.7" x2="120.6" y2="93.7"></line>
				<circle class="st0" cx="106.9" cy="76.6" r="12"></circle>
				<circle class="st3" cx="106.9" cy="76.6" r="12"></circle>
				<g>
					<path class="st5" d="M109.5,76.6l5.1,2.6c0,0,0,0.3,0,1.7c0,1.4-0.9,2.6-1.7,2.6h-12c-0.9,0-1.7-1.2-1.7-2.6c0-1.4,0-1.7,0-1.7       l5.1-2.6l2.6,1.7L109.5,76.6z"></path>
					<path class="st4" d="M110.3,71.9c0,2.1-0.8,4.7-3.4,4.7c-2.6,0-3.4-2.6-3.4-4.7c0-2.1,0.9-3.9,3.4-3.9       C109.5,68,110.3,69.7,110.3,71.9z"></path>
				</g>
				<line class="st1" x1="94" y1="93.7" x2="100.9" y2="93.7"></line>
				<line class="st1" x1="94" y1="97.1" x2="106" y2="97.1"></line>
				<line class="st1" x1="94" y1="100.6" x2="114.6" y2="100.6"></line>
				<line class="st1" x1="102.6" y1="93.7" x2="114.6" y2="93.7"></line>
				<line class="st1" x1="107.7" y1="97.1" x2="114.6" y2="97.1"></line>
			</g>
			<polyline class="st1" points="117.2,109.1 86.3,109.1 86.3,60.3    "></polyline>
		</g>
	</g>
</g>
</svg>